<?xml version="1.0" encoding="utf-8"?>
<!-- Generator: Adobe Illustrator 26.0.1, SVG Export Plug-In . SVG Version: 6.00 Build 0)  -->
<svg version="1.1" id="Layer_1" xmlns="http://www.w3.org/2000/svg" xmlns:xlink="http://www.w3.org/1999/xlink" x="0px" y="0px"
	 viewBox="0 0 1080 1080" style="enable-background:new 0 0 1080 1080;" xml:space="preserve">
<style type="text/css">
	.st0{fill:#005CA9;}
	.st1{fill:#EF7C00;}
	.st2{fill:#1A3A82;}
</style>
<circle class="st0" cx="429" cy="654.5" r="41.3"/>
<circle class="st1" cx="376.1" cy="873.5" r="41.3"/>
<circle class="st1" cx="324.8" cy="969.1" r="41.3"/>
<circle class="st1" cx="404.3" cy="770" r="41.3"/>
<circle class="st1" cx="453.5" cy="539" r="41.3"/>
<circle class="st1" cx="480.9" cy="423.6" r="41.3"/>
<circle class="st1" cx="518.6" cy="322.3" r="41.3"/>
<circle class="st1" cx="563.5" cy="227.6" r="41.3"/>
<rect x="581.3" y="277" transform="matrix(0.7071 0.7071 -0.7071 0.7071 439.9029 -459.436)" class="st2" width="386.6" height="48.5"/>
<rect x="675.7" y="212.6" transform="matrix(0.7071 0.7071 -0.7071 0.7071 415.9383 -530.5058)" class="st2" width="345.3" height="48.5"/>
<path class="st2" d="M821.8,520.2L569.5,267.8c-5.8-5.8-5.8-15.2,0-21l13.3-13.3c5.8-5.8,15.2-5.8,21,0l252.3,252.3L821.8,520.2z"/>
<path class="st2" d="M735.4,568.8L524,357.4c-5.8-5.8-5.8-15.2,0-21l13.3-13.3c5.8-5.8,15.2-5.8,21,0l211.4,211.4L735.4,568.8z"/>
<path class="st2" d="M627.7,603.8L486,462.1c-5.9-5.9-5.9-15.4,0-21.3l13-13c5.9-5.9,15.4-5.9,21.3,0L662,569.5L627.7,603.8z"/>
<path class="st2" d="M513.9,630.4l-63.8-63.8c-5.8-5.8-5.8-15.2,0-21l13.3-13.3c5.8-5.8,15.2-5.8,21,0l63.8,63.8L513.9,630.4z"/>
<path class="st2" d="M372.5,768.2l-63.8-63.8l34.3-34.3l63.8,63.8c5.8,5.8,5.8,15.2,0,21l-13.3,13.3
	C387.7,774,378.3,774,372.5,768.2z"/>
<path class="st2" d="M337.9,871.6L195.8,729.4l34.3-34.3l142.2,142.2c5.8,5.8,5.8,15.2,0,21l-13.3,13.3
	C353.1,877.4,343.7,877.4,337.9,871.6z"/>
<path class="st2" d="M295.4,973.9L92.9,771.4l34.3-34.3l202.5,202.5c5.8,5.8,5.8,15.2,0,21l-13.3,13.3
	C310.6,979.7,301.2,979.7,295.4,973.9z"/>
<circle class="st1" cx="627.8" cy="151.4" r="41.3"/>
<circle class="st1" cx="718.8" cy="99.8" r="41.3"/>
<circle class="st0" cx="930.5" cy="455.3" r="41.3"/>
<circle class="st0" cx="979.5" cy="368" r="41.3"/>
<circle class="st0" cx="855" cy="518.8" r="41.3"/>
<circle class="st0" cx="760" cy="564.9" r="41.3"/>
<circle class="st0" cx="657.4" cy="601.4" r="41.3"/>
<circle class="st0" cx="544.2" cy="628.7" r="41.3"/>
<circle class="st0" cx="312.3" cy="676.9" r="41.3"/>
<circle class="st0" cx="200.6" cy="701.3" r="41.3"/>
<circle class="st0" cx="107.2" cy="747.8" r="41.3"/>
</svg>
