<?xml version="1.0" encoding="utf-8"?>
<!-- Generator: Adobe Illustrator 26.0.1, SVG Export Plug-In . SVG Version: 6.00 Build 0)  -->
<svg version="1.1" id="Layer_1" xmlns="http://www.w3.org/2000/svg" xmlns:xlink="http://www.w3.org/1999/xlink" x="0px" y="0px"
	 viewBox="0 0 1080 1080" style="enable-background:new 0 0 1080 1080;" xml:space="preserve">
<style type="text/css">
	.st0{fill:none;stroke:#00256F;stroke-width:11.9512;stroke-miterlimit:10;}
	.st1{fill:#94C120;}
	.st2{fill:none;stroke:#00256F;stroke-width:11.9512;stroke-linecap:round;stroke-linejoin:round;stroke-miterlimit:10;}
	.st3{fill:#005CA9;}
	.st4{fill:#EA4E1B;}
</style>
<line class="st0" x1="493" y1="221.6" x2="538.3" y2="221.6"/>
<line class="st0" x1="538.3" y1="296.3" x2="493" y2="296.3"/>
<line class="st0" x1="493" y1="357.2" x2="538.3" y2="357.2"/>
<line class="st0" x1="493" y1="431.8" x2="538.3" y2="431.8"/>
<path class="st1" d="M349.6,534h188.7l225.6,438.7c8.2,15.9-3.4,34.7-21.2,34.7H145.1c-17.8,0-29.4-18.9-21.2-34.8L349.6,534z"/>
<path class="st2" d="M579.4,99.8h-273v76.6h43.2V534l-227,441.3c-7.6,14.7,3.1,32.2,19.6,32.2h603.4c16.5,0,27.2-17.5,19.6-32.2
	L538.3,534V172.5h41.1V99.8z"/>
<path class="st3" d="M637.8,679.4l136.9,260.8c6.1,11.7,9.1,24.8,8.6,38l-1.2,30.4c0,0,160.1,23.7,227.2-101.2
	c0,0,35.3-50.7,43.1-146.7c0,0-22.9-116.5-101.3-158.5c0,0-98.4,4.5-185.2,67C709,710.1,637.8,679.4,637.8,679.4z"/>
<path class="st2" d="M782.1,1008.6h37.2c60.6,0,119.6-23.3,161.6-67c37.2-38.7,71.9-94.1,71.9-166.2
	c0-155.2-161.1-216.1-161.1-216.1V286.2h33.4v-51.1H722.8v51.1h35.4v277c-70.7,11.8-123.8,82.5-123.8,82.5"/>
<circle class="st3" cx="791.6" cy="612" r="9.9"/>
<circle class="st3" cx="833.5" cy="501" r="13.4"/>
<circle class="st3" cx="795.1" cy="372.4" r="18.8"/>
<circle class="st3" cx="795.1" cy="175.5" r="18.8"/>
<circle class="st3" cx="873.5" cy="93.5" r="29.3"/>
<circle class="st3" cx="843.7" cy="284.8" r="6.3"/>
<circle class="st1" cx="405" cy="471.4" r="20.6"/>
<circle class="st1" cx="460.4" cy="280.4" r="30.8"/>
<circle class="st1" cx="405" cy="166.7" r="21.7"/>
<path class="st4" d="M65.8,514.7H176l2.7,309.3c0,0-34.2,54.8-88.6,183.3c0,0-29.3-0.7-29.3-87.1L65.8,514.7z"/>
<path class="st2" d="M178.7,819.5v-423h31.4v-47.1H27.4v51.1h33.4v531.8c0,28.5,10.3,56,28.8,77.4"/>
<line class="st0" x1="127.7" y1="427.2" x2="173.1" y2="427.2"/>
<line class="st0" x1="127.7" y1="479" x2="173.1" y2="479"/>
<line class="st0" x1="127.7" y1="530.8" x2="173.1" y2="530.8"/>
<line class="st0" x1="127.7" y1="582.6" x2="173.1" y2="582.6"/>
<circle class="st4" cx="106" cy="450.7" r="12.8"/>
<circle class="st4" cx="139.4" cy="402.4" r="9"/>
<circle class="st4" cx="139.4" cy="305.3" r="19.3"/>
<circle class="st4" cx="60.8" cy="233.1" r="27.5"/>
</svg>
