<?xml version="1.0" encoding="utf-8"?>
<!-- Generator: Adobe Illustrator 26.0.1, SVG Export Plug-In . SVG Version: 6.00 Build 0)  -->
<svg version="1.1" id="Layer_1" xmlns="http://www.w3.org/2000/svg" xmlns:xlink="http://www.w3.org/1999/xlink" x="0px" y="0px"
	 viewBox="0 0 1080 1080" style="enable-background:new 0 0 1080 1080;" xml:space="preserve">
<style type="text/css">
	.st0{fill:#005CA9;}
	.st1{fill:#EF7C00;}
	.st2{fill:#76B828;}
</style>
<g>
	<g>
		<path class="st0" d="M487,955.6c-256.5,0-465.2-208.7-465.2-465.2S230.5,25.2,487,25.2c256.5,0,465.2,208.7,465.2,465.2
			S743.5,955.6,487,955.6z M487,62C250.8,62,58.6,254.2,58.6,490.4S250.8,918.8,487,918.8c236.2,0,428.4-192.2,428.4-428.4
			S723.3,62,487,62z"/>
	</g>
	<g>
		<path class="st0" d="M972.2,1054.4c-23,0-44.6-9-60.9-25.2L739,856.9l121.7-121.7L1033,907.5c16.3,16.3,25.2,37.9,25.2,60.9
			s-9,44.6-25.2,60.8C1016.8,1045.5,995.2,1054.4,972.2,1054.4z M791,856.9l146.4,146.4c18.6,18.6,51.1,18.6,69.7,0
			c9.3-9.3,14.4-21.7,14.4-34.9c0-13.2-5.1-25.6-14.4-34.9L860.7,787.1L791,856.9z"/>
	</g>
	<g>
		<path class="st1" d="M349.7,821.9h-37.1v-86l-31.3-0.8l0.7,56.9h-37.1v-56.2c0-20.9,16.3-37.9,36.4-37.9h32
			c20.1,0,36.4,17,36.4,37.9V821.9z"/>
	</g>
	<g>
		<path class="st1" d="M498,879.9h-41.5V721.3h-31.9v143.5h-41.5V719.9c0-22.1,18-40.1,40.1-40.1h34.7c22.1,0,40.1,18,40.1,40.1
			V879.9z"/>
	</g>
	<g>
		<path class="st1" d="M560,864.8h-41.8V600.3c0-22.2,18-40.2,40.2-40.2h34.7c22.2,0,40.2,18,40.2,40.2v240.6h-41.7V601.8H560V864.8
			z"/>
	</g>
	<g>
		<path class="st1" d="M694.6,826.2h-40.4V543.7c0-21.8,17.7-39.5,39.5-39.5h34.7c21.8,0,39.5,17.7,39.5,39.5v223.9h-40.4V543.7
			l-33.8,0.9L694.6,826.2z"/>
	</g>
	<g>
		<path class="st2" d="M207.5,729.8l-26.1-26.4l104.6-103.5c7.3-7.2,16.6-10.7,27-11c10.2,0.1,19.7,4.2,26.8,11.5l21.5,22.1
			l162.9-159.6c7.2-7.1,17.1-10.8,27-10.9c10.2,0.1,19.7,4.2,26.8,11.4l17,17.4l125.6-133.5l27.2,25.3L623.2,506.2
			c-7.1,7.6-17,11.9-27.3,12.1c-0.1,0-0.3,0-0.4,0c-10.2,0-20-4.2-27.2-11.4l-17-17.4L388.4,649c-7.2,7.1-16.2,10.9-27,10.9
			c-10.2-0.1-19.7-4.2-26.7-11.4l-21.5-22.2L207.5,729.8z"/>
	</g>
	<g>
		<path class="st2" d="M732.5,468.1c-9.9,0-17.8-8-17.8-17.8v-70.4h-83.3c-9.9,0-17.8-8-17.8-17.8c0-9.8,8-17.8,17.8-17.8h101.1
			c9.9,0,17.8,8,17.8,17.8v88.2C750.3,460.1,742.3,468.1,732.5,468.1z"/>
	</g>
	<g>
		<path class="st2" d="M276.3,441.5v-40.1h20.8v25.2c0,20.8,25.2,47.5,60.8,52.4V375.7c-41.6-15.3-85.1-31.7-85.1-87.1
			c0-39.6,27.7-71.7,85.1-74.7v-35.1h19.8V214c17.8,2,35.1,8.9,49,20.8l11.9-15.3h17.8c0,0-8.9,35.1-8.9,50.4v31.7h-20.8v-26.7
			c0-16.3-20.8-38.1-49-43v104.4c42,14.8,88,29.2,88,82.6c0,37.6-28.7,74.7-88,78.2V532h-19.8v-35.1c-23.7-2-43.5-10.4-58.4-24.7
			l-7.9,21.3h-17.8C273.8,493.4,276.3,466.7,276.3,441.5z M357.9,328.7v-97.4c-28.2,2.5-50.9,15.8-50.5,41.6
			C307.4,303.5,330.2,317.8,357.9,328.7z M377.7,383.1v96.9c28.7-2.5,51.9-16.3,51.9-41.1C429.6,408.4,406.4,394.5,377.7,383.1z"/>
	</g>
	<g>
		<path class="st0" d="M487,887.7C268,887.7,89.8,709.4,89.8,490.4S268,93.1,487,93.1c219.1,0,397.3,178.2,397.3,397.3
			S706.1,887.7,487,887.7z M487,129.9c-198.8,0-360.5,161.7-360.5,360.5c0,198.8,161.7,360.5,360.5,360.5s360.5-161.7,360.5-360.5
			C847.6,291.6,685.8,129.9,487,129.9z"/>
	</g>
</g>
</svg>
