<?xml version="1.0" encoding="utf-8"?>
<!-- Generator: Adobe Illustrator 26.0.1, SVG Export Plug-In . SVG Version: 6.00 Build 0)  -->
<svg version="1.1" id="Layer_1" xmlns="http://www.w3.org/2000/svg" xmlns:xlink="http://www.w3.org/1999/xlink" x="0px" y="0px"
	 viewBox="0 0 1080 1080" style="enable-background:new 0 0 1080 1080;" xml:space="preserve">
<style type="text/css">
	.st0{fill:#EF7C00;}
	.st1{fill:#005CA9;}
	.st2{fill:#76B828;}
</style>
<g>
	<g>
		<g>
			<path class="st0" d="M717.5,287.9c-5.6,0-10.1-4.5-10.1-10.1V94c0-6.3-5.2-11.5-11.5-11.5H592.1c-6.3,0-11.5,5.2-11.5,11.5v177.8
				c0,5.6-4.5,10.1-10.1,10.1s-10.1-4.5-10.1-10.1V94c0-17.5,14.2-31.8,31.8-31.8h103.8c17.5,0,31.7,14.2,31.7,31.8v183.8
				C727.6,283.4,723.1,287.9,717.5,287.9z"/>
		</g>
		<g>
			<path class="st0" d="M711.4,130.9h-53.6c-5.6,0-10.1-4.5-10.1-10.1c0-5.6,4.5-10.1,10.1-10.1h53.6c5.6,0,10.1,4.5,10.1,10.1
				C721.5,126.4,717,130.9,711.4,130.9z"/>
		</g>
		<g>
			<path class="st0" d="M711.4,184.9h-53.6c-5.6,0-10.1-4.5-10.1-10.1c0-5.6,4.5-10.1,10.1-10.1h53.6c5.6,0,10.1,4.5,10.1,10.1
				C721.5,180.4,717,184.9,711.4,184.9z"/>
		</g>
		<g>
			<path class="st0" d="M711.4,239h-53.6c-5.6,0-10.1-4.5-10.1-10.1s4.5-10.1,10.1-10.1h53.6c5.6,0,10.1,4.5,10.1,10.1
				S717,239,711.4,239z"/>
		</g>
		<g>
			<path class="st0" d="M875.8,284.9c-5.6,0-10.1-4.5-10.1-10.1V162.1l-32.9-66.3L802,162v112.8c0,5.6-4.5,10.1-10.1,10.1
				c-5.6,0-10.1-4.5-10.1-10.1v-115c0-1.5,0.3-2.9,0.9-4.3l40.7-87.4c1.6-3.5,5.2-5.8,9.1-5.9c3.8,0,7.5,2.1,9.2,5.6l43.3,87.4
				c0.7,1.4,1,2.9,1,4.5v115C885.9,280.4,881.4,284.9,875.8,284.9z"/>
		</g>
		<g>
			<path class="st0" d="M870.1,172.5h-69.7c-5.6,0-10.1-4.5-10.1-10.1s4.5-10.1,10.1-10.1h69.7c5.6,0,10.1,4.5,10.1,10.1
				S875.7,172.5,870.1,172.5z"/>
		</g>
	</g>
	<g>
		<path class="st1" d="M129.7,868.5c-3.2,0-6.4-0.8-9.3-2.5C81.9,843.4,58,801.8,58,757.2V342.6c0-40,32.5-72.5,72.5-72.5h33.3
			c10.2,0,18.5,8.3,18.5,18.5s-8.3,18.5-18.5,18.5h-33.3C111,307.1,95,323,95,342.6v414.6c0,31.5,16.9,60.9,44,76.8
			c8.8,5.2,11.8,16.5,6.6,25.3C142.2,865.2,136,868.5,129.7,868.5z"/>
	</g>
	<g>
		<path class="st1" d="M948.9,868.5H259c-10.2,0-18.5-8.3-18.5-18.5c0-10.2,8.3-18.5,18.5-18.5h689.9c19.6,0,35.5-15.9,35.5-35.5
			V342.6c0-19.6-15.9-35.5-35.5-35.5H498c-10.2,0-18.5-8.3-18.5-18.5s8.3-18.5,18.5-18.5h450.9c40,0,72.5,32.5,72.5,72.5V796
			C1021.4,835.9,988.9,868.5,948.9,868.5z"/>
	</g>
	<g>
		<rect x="83.5" y="729.4" class="st1" width="903.3" height="37"/>
	</g>
	<g>
		<path class="st0" d="M453.7,685.4H205.4c-2.8,0-5.5-1.2-7.4-3.2c-1.9-2.1-2.9-4.8-2.7-7.6l25.1-340.8c0.1-1.1,0.3-2.2,0.8-3.2
			c20.4-48.7,0.3-94.4,0.1-94.8c-1.2-2.7-1.2-5.7,0-8.3c1.2-2.6,3.5-4.7,6.3-5.5l53.6-16.4c3.9-1.1,8.1,0.1,10.7,3.2
			c10.3,12.3,21.8,18.8,35,19.7c27.1,1.8,52.2-20.5,52.5-20.7c2.8-2.5,6.8-3.3,10.4-2l43.2,16.4c5,1.9,7.7,7.4,6.1,12.5
			c-22.2,69.7,1.1,92,1.3,92.2c2,1.8,3.3,4.4,3.5,7.1l19.9,340.8c0.2,2.8-0.8,5.5-2.7,7.6C459.1,684.2,456.5,685.4,453.7,685.4z
			 M216.3,665.1h226.6l-19.1-326.4c-8-9.4-24.6-38.1-6.8-101.1l-29-11c-10.2,7.8-34.4,23.9-62.4,21.9c-16.8-1.1-31.8-8.5-44.7-21.8
			l-37.2,11.4c5.7,18.2,13.7,56.9-3.2,98.7L216.3,665.1z"/>
	</g>
	<g>
		<path class="st0" d="M329.5,685.4c-5.6,0-10.1-4.5-10.1-10.1V241c0-5.6,4.5-10.1,10.1-10.1c5.6,0,10.1,4.5,10.1,10.1v434.2
			C339.7,680.9,335.1,685.4,329.5,685.4z"/>
	</g>
	<g>
		<path class="st2" d="M726.1,597.9c-2.3,0-4.6-0.8-6.5-2.4L481.6,395.7l4.1-7.3c0.8-1.4,8.1-13.6,29-16.9
			c36.7-5.9,112.1,17,263.6,158.2c4.1,3.8,4.3,10.2,0.5,14.3c-3.8,4.1-10.2,4.3-14.3,0.5C613.8,404,546.5,388.4,519.6,391.3
			c-3.8,0.4-6.8,1.3-9.1,2.2L732.6,580c4.3,3.6,4.8,10,1.2,14.3C731.8,596.7,729,597.9,726.1,597.9z"/>
	</g>
	<g>
		<path class="st2" d="M534.1,651.2c-3.3,0-6.5-0.2-9.5-0.7c-20.9-3.3-28-16.4-28.8-17.9l-3.4-6.8l225.7-208.2
			c4.1-3.8,10.5-3.5,14.3,0.6c3.8,4.1,3.5,10.5-0.6,14.3l-212,195.6c2.3,1.1,5.3,2.1,9.3,2.6c25.2,3.1,89.1-13.9,232.5-160.7
			c3.9-4,10.3-4.1,14.3-0.2c4,3.9,4.1,10.3,0.2,14.3C668.9,593.8,585.6,651.2,534.1,651.2z"/>
	</g>
	<g>
		<path class="st2" d="M802.6,689.1c-45.9,0-83.3-37.4-83.3-83.3c0-45.9,37.4-83.3,83.3-83.3s83.3,37.4,83.3,83.3
			C885.9,651.7,848.5,689.1,802.6,689.1z M802.6,542.8c-34.8,0-63.1,28.3-63.1,63c0,34.8,28.3,63.1,63.1,63.1
			c34.8,0,63-28.3,63-63.1C865.7,571,837.4,542.8,802.6,542.8z"/>
	</g>
	<g>
		<path class="st2" d="M802.6,647.1c-22.8,0-41.3-18.5-41.3-41.3c0-22.8,18.5-41.3,41.3-41.3c22.8,0,41.3,18.5,41.3,41.3
			C843.9,628.6,825.4,647.1,802.6,647.1z M802.6,584.7c-11.6,0-21.1,9.5-21.1,21.1c0,11.6,9.5,21.1,21.1,21.1
			c11.6,0,21.1-9.5,21.1-21.1C823.7,594.2,814.2,584.7,802.6,584.7z"/>
	</g>
	<g>
		<path class="st2" d="M802.6,493c-45.9,0-83.3-37.4-83.3-83.3c0-45.9,37.4-83.3,83.3-83.3s83.3,37.4,83.3,83.3
			C885.9,455.7,848.5,493,802.6,493z M802.6,346.7c-34.8,0-63.1,28.3-63.1,63c0,34.8,28.3,63,63.1,63c34.8,0,63-28.3,63-63
			C865.7,375,837.4,346.7,802.6,346.7z"/>
	</g>
	<g>
		<path class="st2" d="M802.6,451.1c-22.8,0-41.3-18.5-41.3-41.3s18.5-41.3,41.3-41.3c22.8,0,41.3,18.5,41.3,41.3
			S825.4,451.1,802.6,451.1z M802.6,388.6c-11.6,0-21.1,9.5-21.1,21.1s9.5,21.1,21.1,21.1c11.6,0,21.1-9.5,21.1-21.1
			S814.2,388.6,802.6,388.6z"/>
	</g>
	<g>
		<path class="st1" d="M610.7,959.7H484.4V839.9h126.3V959.7z M504.7,939.5h85.8v-79.4h-85.8V939.5z"/>
	</g>
	<g>
		<path class="st1" d="M781.5,1016.9H315.9v-10.1c0-37.1,30.2-67.2,67.2-67.2h212.6c5.6,0,10.1,4.5,10.1,10.1
			c0,5.6-4.5,10.1-10.1,10.1H383.2c-22.4,0-41.2,15.8-45.9,36.9h422.9c-4.6-21.1-23.5-36.9-45.9-36.9h-31.1
			c-5.6,0-10.1-4.5-10.1-10.1c0-5.6,4.5-10.1,10.1-10.1h31.1c37.1,0,67.2,30.2,67.2,67.2V1016.9z"/>
	</g>
</g>
</svg>
