<?xml version="1.0" encoding="utf-8"?>
<!-- Generator: Adobe Illustrator 26.0.1, SVG Export Plug-In . SVG Version: 6.00 Build 0)  -->
<svg version="1.1" id="Layer_1" xmlns="http://www.w3.org/2000/svg" xmlns:xlink="http://www.w3.org/1999/xlink" x="0px" y="0px"
	 viewBox="0 0 500 500" style="enable-background:new 0 0 500 500;" xml:space="preserve">
<style type="text/css">
	.st0{fill:#005CA9;}
	.st1{fill:#94C120;}
	.st2{fill:#EA4E1B;}
</style>
<g>
	<path class="st0" d="M430.5,250c0,68.6,0,137.2,0,205.8c0,8.9-2,10.8-10.9,10.8c-108.5,0-216.9,0-325.4,0
		c-16.3,0-24.8-8.5-24.8-24.7c0-128,0-256,0-384c0-16,8.5-24.6,24.5-24.6c108.6,0,217.2,0,325.8,0c8.9,0,10.8,1.9,10.8,10.9
		C430.5,112.9,430.5,181.4,430.5,250z M113.1,48c0,134.9,0,269.4,0,403.8c101.1,0,202,0,302.7,0c0-134.8,0-269.2,0-403.8
		C314.9,48,214.2,48,113.1,48z M98.1,452.2c0-135.1,0-269.6,0-404.1c-12.4-1-14.1,0.6-14.1,12.5c0,126.6,0,253.2,0,379.9
		c0,1.5-0.1,3,0,4.5c0.3,4.3,2.9,6.9,7.2,7.2C93.3,452.3,95.6,452.2,98.1,452.2z"/>
	<path class="st1" d="M272.2,228.3c6.6,0,13.1,0,19.5,0c6.2,0,8.8,2.6,8.9,8.7c0.1,6.6,0,13.2,0,20.1c2.5,0,4.6-0.1,6.6,0
		c4.8,0.2,7.7,2.8,7.7,7.5c0.1,9.5,0.1,19,0,28.4c-0.1,4.5-2.9,7.3-7.5,7.3c-28.6,0.1-57.2,0.1-85.7,0c-5,0-7.7-2.9-7.8-8
		c-0.1-8.7-0.1-17.4,0-26.2c0-6.7,2.5-9.1,9.4-9.1c1.5,0,3,0,5.1,0c0-6.6,0-13,0-19.4c0-7.1,2.4-9.4,9.5-9.4c6.3,0,12.6,0,19.1,0
		c0.1-1.6,0.2-3,0.2-4.3c0-28.9,0-57.8,0.1-86.6c0-2.8-0.7-4.3-3.2-6c-3.4-2.2-5.8-5.8-8.8-8.8c-1-1-2.3-2.5-3.5-2.5
		c-17.6-0.2-35.2-0.1-53.4-0.1c0.6,1.9,1,3.4,1.6,4.9c7.5,20.7,15.6,41.3,22.4,62.3c4.6,14.1,1.4,27.6-9.5,38.1
		c-11,10.5-24.2,13.2-38.4,7.5c-13.8-5.5-21.2-16.3-22.6-31.1c-0.6-6.3,0.3-12.4,2.6-18.5c7.3-19.2,14.2-38.6,21.2-58
		c0.6-1.5,1-3.1,1.7-5.1c-8.7,0-16.8,0-25.3,0c0-5,0-9.5,0-14.6c1.7,0,3.3,0,4.9,0c31,0,62,0,93,0.1c2.8,0,4.3-0.7,6-3.3
		c2.1-3.3,5.2-6.2,8.5-8.4c2.3-1.5,3-2.8,2.9-5.3c-0.2-3.8,0-7.5,0-11.6c4.7,0,9.3,0,14.4,0c0,3.7,0.2,7.6-0.1,11.4
		c-0.2,2.7,0.8,4,3.1,5.6c3.3,2.2,6.3,5.2,8.4,8.5c1.6,2.4,3,3.1,5.6,3.1c31-0.1,62-0.1,93-0.1c1.6,0,3.3,0,5.2,0
		c0,4.9,0,9.4,0,14.4c-8.4,0-16.6,0-25.4,0c0.7,2,1.1,3.6,1.7,5.1c7.5,20.6,15.5,41,22.3,61.9c4.7,14.3,1.6,27.9-9.6,38.5
		c-11,10.5-24.3,13.1-38.4,7.3c-13.9-5.7-21.3-16.6-22.5-31.6c-0.5-6.2,0.4-12.1,2.7-18.1c7.3-19.2,14.2-38.6,21.2-58
		c0.5-1.5,1-3,1.7-5.1c-4.5,0-8.3,0-12.2,0c-13.4,0-26.8,0-40.2,0c-2.3,0-3.5,0.8-4.9,2.7c-2.7,3.5-6.3,6.3-9.3,9.4
		c-1,1-2.3,2.4-2.3,3.7c-0.1,30.4-0.1,60.8,0,91.2C271.7,227.3,271.9,227.5,272.2,228.3z M228.6,285.8c24.1,0,47.9,0,71.6,0
		c0-4.9,0-9.4,0-13.9c-24,0-47.7,0-71.6,0C228.6,276.5,228.6,281,228.6,285.8z M196.3,184.9c-6.2-17-12.1-33.3-18.1-49.6
		c-0.3,0.1-0.7,0.1-1,0.2c-5.9,16.4-11.9,32.7-17.9,49.4C171.9,184.9,183.8,184.9,196.3,184.9z M369.6,184.9
		c-6.1-16.8-12.1-33.2-18-49.6c-0.3,0.1-0.7,0.1-1,0.2c-5.9,16.3-11.8,32.7-17.9,49.3C345.3,184.9,357.1,184.9,369.6,184.9z
		 M199.2,199.7c-14.3,0-28.6,0-42.9,0c0.3,12.2,9.9,21.5,21.8,21.4C189.8,221,199.2,211.5,199.2,199.7z M329.7,199.7
		c0,12.3,10.2,21.9,22.5,21.4c11.5-0.5,21.2-10.8,20.1-21.4C358.1,199.7,343.9,199.7,329.7,199.7z M285.9,243.1
		c-14.5,0-28.7,0-42.8,0c0,4.9,0,9.4,0,13.9c14.4,0,28.5,0,42.8,0C285.9,252.3,285.9,247.9,285.9,243.1z M271.6,112.7
		c0-3.9-3.3-7.1-7.2-7.1c-4.1,0-7.4,3.4-7.2,7.5c0.2,3.9,3.5,7,7.4,6.9C268.5,119.9,271.7,116.6,271.6,112.7z"/>
	<path class="st2" d="M264.9,322.2c37.3,0,74.6,0,111.9,0c8.3,0,10.4,2.1,10.4,10.4c0,26.9,0,53.9,0,80.8c0,7.7-2.3,9.9-9.9,9.9
		c-75.2,0-150.4,0-225.6,0c-7.7,0-9.9-2.3-9.9-9.9c0-27.1,0-54.2,0-81.2c0-7.7,2.2-9.9,9.9-9.9C189.4,322.2,227.1,322.2,264.9,322.2
		z M372.6,337c-72.3,0-144.2,0-216.1,0c0,24.1,0,47.9,0,71.7c72.2,0,144,0,216.1,0C372.6,384.7,372.6,361,372.6,337z"/>
	<path class="st2" d="M358.1,380.3c0,4.7,0,9.2,0,13.9c-62.5,0-124.8,0-187.3,0c0-4.6,0-9.1,0-13.9
		C233.1,380.3,295.4,380.3,358.1,380.3z"/>
	<path class="st2" d="M358.1,351.4c0,4.8,0,9.2,0,13.9c-48,0-95.7,0-143.8,0c0-4.5,0-9,0-13.9C262,351.4,309.9,351.4,358.1,351.4z"
		/>
	<path class="st2" d="M170.7,365.2c0-4.7,0-9.1,0-13.8c9.5,0,18.9,0,28.5,0c0,4.6,0,9,0,13.8C189.9,365.2,180.6,365.2,170.7,365.2z"
		/>
</g>
</svg>
