<?xml version="1.0" encoding="utf-8"?>
<!-- Generator: Adobe Illustrator 26.0.1, SVG Export Plug-In . SVG Version: 6.00 Build 0)  -->
<svg version="1.1" id="Layer_1" xmlns="http://www.w3.org/2000/svg" xmlns:xlink="http://www.w3.org/1999/xlink" x="0px" y="0px"
	 viewBox="0 0 1080 1080" style="enable-background:new 0 0 1080 1080;" xml:space="preserve">
<style type="text/css">
	.st0{fill:#EA4E1B;}
	.st1{fill:#0066B3;}
	.st2{fill:none;stroke:#71BF44;stroke-width:17.9592;stroke-miterlimit:10;}
	.st3{fill:none;stroke:#0066B3;stroke-width:16.11;stroke-linecap:round;stroke-miterlimit:10;}
	.st4{fill:none;stroke:#0066B3;stroke-width:11.9728;stroke-linecap:round;stroke-miterlimit:10;}
</style>
<g>
	<path class="st0" d="M292,297.4l-124.7,452L668.8,318L292,297.4z M335.7,348l213.8,6.9L273.5,595L335.7,348z"/>
	<polygon class="st1" points="580.2,843.9 607.7,806.1 580.2,796.6 	"/>
	<ellipse class="st2" cx="587.9" cy="821.2" rx="314.4" ry="192.2"/>
	<g>
		<path class="st3" d="M711.7,313.6c-19.3-13.7-31.9-36.3-31.9-61.8c0-41.8,33.9-75.8,75.8-75.8s75.8,33.9,75.8,75.8
			c0,25.5-12.6,48.1-31.9,61.8"/>
		<rect x="728.6" y="66.6" class="st1" width="53.7" height="109.5"/>
		<path class="st1" d="M706.2,340.2L600.5,715c0,0,21.3-3.4,40.8,14.5l108.5-377.6L706.2,340.2z"/>
		<path class="st1" d="M808.6,340.2l93.7,384c0,0-20.2-14.7-43.1,5.4L765,351.9L808.6,340.2z"/>
		<g>
			<line class="st4" x1="683.7" y1="420" x2="656.6" y2="420"/>
			<line class="st4" x1="656.6" y1="398" x2="648.9" y2="439.2"/>
			<line class="st4" x1="826.1" y1="421.9" x2="853.2" y2="421.9"/>
			<line class="st4" x1="860.2" y1="444.1" x2="854" y2="402.6"/>
		</g>
		
			<rect x="875.3" y="712.3" transform="matrix(0.9556 -0.2945 0.2945 0.9556 -176.4708 292.8615)" class="st1" width="17.5" height="40.1"/>
		<polygon class="st1" points="866.3,743.5 907.8,743.5 912.7,781.9 874.4,781.9 		"/>
		<polygon class="st1" points="903.9,836.4 877.2,781.9 909.9,781.9 		"/>
		<circle class="st1" cx="607.7" cy="759.8" r="27.5"/>
		<circle class="st1" cx="755.6" cy="313.6" r="30.3"/>
		<rect x="748.9" y="204.3" class="st1" width="13" height="60.3"/>
		<rect x="752.7" y="362.7" class="st1" width="5.5" height="96.2"/>
	</g>
</g>
</svg>
