<?xml version="1.0" encoding="utf-8"?>
<!-- Generator: Adobe Illustrator 26.0.1, SVG Export Plug-In . SVG Version: 6.00 Build 0)  -->
<svg version="1.1" id="Layer_1" xmlns="http://www.w3.org/2000/svg" xmlns:xlink="http://www.w3.org/1999/xlink" x="0px" y="0px"
	 viewBox="0 0 1080 1080" style="enable-background:new 0 0 1080 1080;" xml:space="preserve">
<style type="text/css">
	.st0{fill:#005CA9;}
	.st1{fill:#76B828;}
	.st2{fill:#EF7C00;}
</style>
<g>
	<g>
		<path class="st0" d="M551.4,785.5c-4.6,0-9.3,0-13.9-0.1C399.5,784,269.6,760.2,172,718.5C69.3,674.7,13.1,615.4,13.8,551.5
			c0.7-63.9,58.1-122,161.7-163.5c98.6-39.5,228.8-60.7,366.9-59c138.1,1.5,267.9,25.3,365.6,66.9c102.7,43.8,158.8,103.1,158.1,167
			c-0.7,63.9-58.1,122-161.7,163.5C809.2,764.7,684.3,785.5,551.4,785.5z M537.9,749.7c133.6,1.4,258.9-18.6,353.2-56.4
			c88-35.3,138.7-82.9,139.2-130.7c0.5-47.8-49.2-96.5-136.4-133.7c-93.5-39.9-218.4-62.6-351.9-64.1
			c-133.6-1.6-258.9,18.6-353.2,56.4c-88,35.3-138.7,82.9-139.3,130.7c-0.5,47.8,49.2,96.5,136.4,133.7
			C279.5,725.5,404.4,748.2,537.9,749.7z"/>
	</g>
	<g>
		<path class="st1" d="M748.4,1025.7c-114.6,0-278.8-138.8-404.9-352.5c-149.9-254.1-181-504.1-70.8-569.2
			c55-32.5,134.4-13.4,223.6,53.8c84.8,63.9,170.2,164.5,240.3,283.5l0,0c149.9,254.1,181,504.2,70.8,569.2
			C789.9,1020.8,770,1025.7,748.4,1025.7z M332.1,124.5c-15.6,0-29.5,3.4-41.3,10.4c-89.8,53-51.6,291.2,83.5,520.1
			s325,377.6,414.9,324.6c89.8-53,51.6-291.2-83.5-520.1c-67.8-115-149.9-211.9-231-273C420.7,145.7,371,124.5,332.1,124.5z"/>
	</g>
	<g>
		<path class="st2" d="M334.7,1027.7c-21.1,0-40.6-4.8-57.8-14.7c-110.8-64-82.1-314.3,65.5-569.8
			C489.9,187.6,692.2,37.6,803.1,101.6c55.3,31.9,77.8,110.5,63.1,221.1C852.3,428,806.7,551.8,737.6,671.4
			C613.1,887.1,449.4,1027.7,334.7,1027.7z M743.9,122.2c-98.7,0-255.5,139.5-370.6,338.8C240.4,691.2,204.5,929.8,294.8,982
			c90.3,52.1,278.9-98.3,411.8-328.5C773.4,537.9,817.5,418.7,830.8,318c12.4-94-4.2-161.6-45.6-185.4
			C773.1,125.6,759.2,122.2,743.9,122.2z"/>
	</g>
	<circle class="st2" cx="231.6" cy="909.3" r="68.9"/>
	<circle class="st1" cx="384.4" cy="121.2" r="68.9"/>
	<circle class="st0" cx="989.1" cy="647.5" r="68.9"/>
</g>
</svg>
