<?xml version="1.0" encoding="utf-8"?>
<!-- Generator: Adobe Illustrator 26.0.1, SVG Export Plug-In . SVG Version: 6.00 Build 0)  -->
<svg version="1.1" id="Layer_1" xmlns="http://www.w3.org/2000/svg" xmlns:xlink="http://www.w3.org/1999/xlink" x="0px" y="0px"
	 viewBox="0 0 1080 1080" style="enable-background:new 0 0 1080 1080;" xml:space="preserve">
<style type="text/css">
	.st0{fill:none;stroke:#EF7C00;stroke-width:18.8149;stroke-linecap:round;stroke-linejoin:round;stroke-miterlimit:10;}
	.st1{fill:none;stroke:#EF7C00;stroke-width:19.379;stroke-linecap:round;stroke-linejoin:round;stroke-miterlimit:10;}
	.st2{fill:none;stroke:#76B828;stroke-width:19.379;stroke-linecap:round;stroke-linejoin:round;stroke-miterlimit:10;}
	.st3{fill:none;stroke:#76B828;stroke-width:18.8149;stroke-linecap:round;stroke-linejoin:round;stroke-miterlimit:10;}
	.st4{fill:none;stroke:#005CA9;stroke-width:25.5975;stroke-linecap:round;stroke-linejoin:round;stroke-miterlimit:10;}
	.st5{font-family:'Pacifico-Regular';}
	.st6{font-size:225.779px;}
</style>
<g>
	<path class="st0" d="M648.1,506.4H476.3c-17.8,0-32.3-14.5-32.3-32.3v0c0-17.8,14.5-32.3,32.3-32.3h171.8
		c17.8,0,32.3,14.5,32.3,32.3v0C680.4,491.9,665.9,506.4,648.1,506.4z"/>
	<path class="st1" d="M562,224.7c32.1,0,62.3,7.8,88.9,21.6"/>
	<path class="st2" d="M412.4,83.5c88.3,18,154.8,96.1,154.8,189.7c0,106.9-86.7,193.6-193.6,193.6c-72.9,0-136.4-40.3-169.4-99.8"/>
	<path class="st1" d="M945.7,432c-29.7,18.5-64.7,29.2-102.3,29.2c-106.9,0-193.6-86.7-193.6-193.6c0-72.5,39.8-135.7,98.8-168.9"/>
	<path class="st1" d="M754.2,441.7C742.7,537.6,661,611.9,562,611.9c-71.4,0-133.8-38.7-167.4-96.2"/>
	<path class="st3" d="M457.9,308.8c-7.5,36.9-40.2,64.6-79.2,64.6s-71.7-27.7-79.2-64.6"/>
	<path class="st0" d="M763.1,283.4c-6.9,8.3-15,13-23.7,13c-9.2,0-17.9-5.4-25-14.7"/>
	<path class="st0" d="M867.8,283.4c-6.9,8.3-15,13-23.7,13c-9.2,0-17.9-5.4-25-14.7"/>
	<path class="st0" d="M743.8,386.1c7.2-21.8,38.1-38.3,75.3-38.3c37.1,0,68.1,16.4,75.3,38.3"/>
	<line class="st3" x1="406.4" y1="228.1" x2="406.4" y2="280.5"/>
	<line class="st3" x1="349.1" y1="228.1" x2="349.1" y2="280.5"/>
	<line class="st0" x1="582.3" y1="110.5" x2="625.3" y2="154.4"/>
	<line class="st0" x1="625.8" y1="111" x2="581.9" y2="154"/>
	<polyline class="st0" points="594.2,323.8 594.2,385.7 622.8,385.7 	"/>
	<line class="st0" x1="504.9" y1="448.4" x2="504.9" y2="501.2"/>
	<line class="st0" x1="561.4" y1="448.4" x2="561.4" y2="501.2"/>
	<line class="st0" x1="617.8" y1="448.4" x2="617.8" y2="501.2"/>
	<path class="st4" d="M660.6,634.1c0,0,96.6,87,193.6,71.6"/>
	<text transform="matrix(1 0 0 1 755.6641 651.9141)" class="st5 st6">?</text>
	<path class="st4" d="M457.9,912.4c42.7,41,65.3,113.7,65.3,113.7h388.6c-102.3-184.9-44.7-328.7-23.4-370.3
		c6.1-12,11.3-24.1,15.8-36.9c14.4-41.3,41.4-126.3,44.2-188.8"/>
	<path class="st4" d="M590.8,815c0,0,6.4,34-46.8,60.6c-48.2,24.1-234.6,79-269.8,89.2c-7.5,2.2-15.5,2.4-22.8-0.1
		c-13.9-4.7-29.9-19.9-21.5-66.2c10.7-59.4-19.4-72.2-31.9-74.8c-2.5-0.5-3.6-3.4-2.2-5.5c3.4-4.9,10.8-12.7,10.2-20.7
		c-0.7-9.5-17.8-21.4-26.8-27.1c-2.9-1.9-3.9-5.6-2.2-8.6c6.3-11.2,19.6-37.4,17-53.4c-1.2-24-43.1-47.7-61.7-57.9
		c-4.8-2.6-6.1-9-2.6-13.3c21.7-27.1,90.5-114.6,102-175.9c3.5-24.1-20.2-44.5-33.7-53.9c-5.1-3.6-7.1-10.1-4.9-16l23.8-62.9
		c3.2-8.4,5.5-17,6.7-25.8c6.6-46.2,48.2-219.8,301.9-243.6c0,0,36.8-7.7,103.9-0.4c155.2,16.9,283.5,130.3,311.2,284
		c4.8,26.6,7.6,55.7,7.8,87.5"/>
</g>
</svg>
