<?xml version="1.0" encoding="utf-8"?>
<!-- Generator: Adobe Illustrator 26.0.1, SVG Export Plug-In . SVG Version: 6.00 Build 0)  -->
<svg version="1.1" id="Layer_1" xmlns="http://www.w3.org/2000/svg" xmlns:xlink="http://www.w3.org/1999/xlink" x="0px" y="0px"
	 viewBox="0 0 1080 1080" style="enable-background:new 0 0 1080 1080;" xml:space="preserve">
<style type="text/css">
	.st0{fill:none;stroke:#005CA9;stroke-width:20.9219;stroke-linecap:round;stroke-linejoin:round;stroke-miterlimit:10;}
	.st1{fill:none;stroke:#94C120;stroke-width:42.8899;stroke-linecap:round;stroke-linejoin:round;stroke-miterlimit:10;}
	.st2{fill:none;stroke:#EA4E1B;stroke-width:20.9219;stroke-linecap:round;stroke-linejoin:round;stroke-miterlimit:10;}
	.st3{fill:#005CA9;}
</style>
<g>
	<path class="st0" d="M695.5,790.1c0,0,20,8.7,61.2,9.5s82.4-22.1,82.4-22.1S901,750.7,949.8,759"/>
	<path class="st1" d="M481.4,956.7c-6.6,0.3-4.9,0.5-11.6,0.5c-233.1,0-422.1-189-422.1-422.1S236.7,113,469.8,113
		c181.6,0,336.5,114.7,396,275.7"/>
	<path class="st1" d="M128.8,286.3c0,0,296.4,144.2,675.6,0"/>
	<line class="st1" x1="54.8" y1="535.1" x2="701.6" y2="535.1"/>
	<ellipse class="st1" cx="472.1" cy="539.4" rx="165.7" ry="417.8"/>
	<path class="st1" d="M128.8,783.8c0,0,220.2-105.1,491.3-56.2"/>
	<path class="st2" d="M791.5,512.1h-28.2c-9.4,0-17-7.6-17-17v-7c0-9.4,7.6-17,17-17h128.1c9.4,0,17,7.6,17,17v7c0,9.4-7.6,17-17,17
		h-27.6"/>
	<path class="st2" d="M766.7,523.8v114.6L625.1,898.7c-16.7,30.8,5.5,68.3,40.6,68.3H986c34.9,0,57.2-37.2,40.8-68l-139-260.6V523.8
		"/>
	<line class="st0" x1="738.5" y1="897.4" x2="955" y2="897.4"/>
	<circle class="st0" cx="789" cy="723.5" r="22.6"/>
	<circle class="st3" cx="710.6" cy="897.4" r="9.7"/>
	<circle class="st3" cx="867.7" cy="700.9" r="9.7"/>
	<circle class="st3" cx="827.6" cy="642.3" r="9.7"/>
</g>
</svg>
